<svg width="42" height="37" viewBox="0 0 42 37" fill="none" xmlns="http://www.w3.org/2000/svg">
<g filter="url(#filter0_d_28_122)">
<path d="M13.1429 3.5C9.20619 3.5 6 6.70619 6 10.6429V26.3571C6 30.2938 9.20619 33.5 13.1429 33.5H28.8571C32.7938 33.5 36 30.2938 36 26.3571V10.6429C36 6.70619 32.7938 3.5 28.8571 3.5H13.1429ZM12.4286 12.0714H29.5714C29.7 12.0714 29.8213 12.0859 29.9355 12.1217L22.9141 19.1362C21.8569 20.1933 20.1361 20.1933 19.079 19.1362L12.0645 12.1217C12.1787 12.0859 12.3 12.0714 12.4286 12.0714ZM11.0502 13.1359L16.4213 18.5L11.0502 23.8641C11.0145 23.7498 11 23.6286 11 23.5V13.5C11 13.3714 11.0145 13.2502 11.0502 13.1359ZM30.9498 13.1359C30.9855 13.2502 31 13.3714 31 13.5V23.5C31 23.6286 30.9855 23.7498 30.9498 23.8641L25.5717 18.5L30.9498 13.1359ZM17.4286 19.5073L18.0647 20.1504C18.8719 20.9575 19.9359 21.3571 20.993 21.3571C22.0573 21.3571 23.1142 20.9575 23.9213 20.1504L24.5645 19.5073L29.9355 24.8783C29.8213 24.9141 29.7 24.9286 29.5714 24.9286H12.4286C12.3 24.9286 12.1787 24.9141 12.0645 24.8783L17.4286 19.5073Z" fill="white"/>
<path d="M13.1426 4H28.8574C32.5177 4.00015 35.4998 6.98227 35.5 10.6426V26.3574C35.4998 30.0177 32.5177 32.9998 28.8574 33H13.1426C9.48227 32.9998 6.50015 30.0177 6.5 26.3574V10.6426C6.50015 6.98227 9.48227 4.00015 13.1426 4ZM17.0752 19.1543L11.7109 24.5254L11.127 25.1094L11.915 25.3555C12.089 25.4098 12.2631 25.4287 12.4287 25.4287H29.5713C29.7369 25.4287 29.911 25.4098 30.085 25.3555L30.873 25.1094L30.2891 24.5244L24.5645 18.7998L23.5674 19.7969C22.8589 20.5053 21.9317 20.8574 20.9932 20.8574C20.1195 20.8574 19.2434 20.5479 18.5537 19.9258L18.418 19.7969L17.7842 19.1553L17.4307 18.7979L17.0752 19.1543ZM10.5732 12.9863C10.5189 13.1603 10.5 13.3344 10.5 13.5V23.5C10.5 23.6656 10.5189 23.8397 10.5732 24.0137L10.8193 24.8018L11.4033 24.2178L16.7744 18.8535L17.1289 18.5L16.7744 18.1465L11.4033 12.7822L10.8193 12.1982L10.5732 12.9863ZM30.5967 12.7822L25.2188 18.1455L24.8633 18.5L25.2188 18.8545L30.5967 24.2178L31.1807 24.8008L31.4268 24.0137C31.4811 23.8397 31.5 23.6656 31.5 23.5V13.5C31.5 13.3344 31.4811 13.1603 31.4268 12.9863L31.1807 12.1992L30.5967 12.7822ZM12.4287 11.5713C12.2631 11.5713 12.089 11.5902 11.915 11.6445L11.127 11.8906L11.7109 12.4756L18.7256 19.4893C19.9779 20.7416 22.0142 20.7414 23.2666 19.4893L23.2676 19.4902L30.2891 12.4756L30.874 11.8906L30.085 11.6445C29.911 11.5902 29.7369 11.5713 29.5713 11.5713H12.4287Z" stroke="#222222"/>
</g>
<defs>
<filter id="filter0_d_28_122" x="0" y="-0.5" width="42" height="42" filterUnits="userSpaceOnUse" color-interpolation-filters="sRGB">
<feFlood flood-opacity="0" result="BackgroundImageFix"/>
<feColorMatrix in="SourceAlpha" type="matrix" values="0 0 0 0 0 0 0 0 0 0 0 0 0 0 0 0 0 0 127 0" result="hardAlpha"/>
<feOffset dy="2"/>
<feGaussianBlur stdDeviation="3"/>
<feComposite in2="hardAlpha" operator="out"/>
<feColorMatrix type="matrix" values="0 0 0 0 0 0 0 0 0 0 0 0 0 0 0 0 0 0 0.05 0"/>
<feBlend mode="normal" in2="BackgroundImageFix" result="effect1_dropShadow_28_122"/>
<feBlend mode="normal" in="SourceGraphic" in2="effect1_dropShadow_28_122" result="shape"/>
</filter>
</defs>
</svg>
