<svg width="35" height="28" viewBox="0 0 35 28" fill="none" xmlns="http://www.w3.org/2000/svg">
<g filter="url(#filter0_d_21_60)">
<path d="M11.4762 2.5C8.45808 2.5 6 4.95808 6 7.97619V20.0238C6 23.0419 8.45808 25.5 11.4762 25.5H23.5238C26.5419 25.5 29 23.0419 29 20.0238V7.97619C29 4.95808 26.5419 2.5 23.5238 2.5H11.4762ZM10.9286 9.07143H24.0714C24.17 9.07143 24.263 9.08255 24.3506 9.10993L18.9674 14.4877C18.157 15.2982 16.8377 15.2982 16.0272 14.4877L10.6494 9.10993C10.737 9.08255 10.83 9.07143 10.9286 9.07143ZM9.87184 9.88751L13.9897 14L9.87184 18.1125C9.84446 18.0249 9.83333 17.9319 9.83333 17.8333V10.1667C9.83333 10.0681 9.84446 9.97513 9.87184 9.88751ZM25.1282 9.88751C25.1555 9.97513 25.1667 10.0681 25.1667 10.1667V17.8333C25.1667 17.9319 25.1555 18.0249 25.1282 18.1125L21.005 14L25.1282 9.88751ZM14.7619 14.7722L15.2496 15.2653C15.8684 15.8841 16.6842 16.1905 17.4947 16.1905C18.3106 16.1905 19.1209 15.8841 19.7397 15.2653L20.2327 14.7722L24.3506 18.8901C24.263 18.9174 24.17 18.9286 24.0714 18.9286H10.9286C10.83 18.9286 10.737 18.9174 10.6494 18.8901L14.7619 14.7722Z" fill="white"/>
<path d="M11.4766 3H23.5234C26.2654 3 28.5 5.23459 28.5 7.97656V20.0234C28.5 22.7654 26.2654 25 23.5234 25H11.4766C8.73459 25 6.5 22.7654 6.5 20.0234V7.97656C6.5 5.23459 8.73459 3 11.4766 3ZM14.4082 14.4189L10.2959 18.5371L9.71191 19.1211L10.5 19.3672C10.6473 19.4132 10.7931 19.4287 10.9287 19.4287H24.0713C24.2069 19.4287 24.3527 19.4132 24.5 19.3672L25.2881 19.1211L24.7041 18.5361L20.5859 14.4189L20.2324 14.0654L19.3857 14.9121C18.8657 15.432 18.1851 15.6903 17.4951 15.6904C16.8956 15.6904 16.2947 15.4925 15.8057 15.0947L15.6035 14.9121L15.1172 14.4209L14.7637 14.0625L14.4082 14.4189ZM9.39453 9.73828C9.3485 9.88557 9.33301 10.0314 9.33301 10.167V17.833C9.33301 17.9686 9.3485 18.1144 9.39453 18.2617L9.64062 19.0498L10.2256 18.4658L14.3428 14.3535L14.6973 14L14.3428 13.6465L10.2256 9.53418L9.64062 8.9502L9.39453 9.73828ZM24.7754 9.5332L20.6523 13.6455L20.2969 14L20.6523 14.3545L24.7754 18.4668L25.3594 19.0488L25.6055 18.2617C25.6515 18.1144 25.667 17.9687 25.667 17.833V10.167C25.667 10.0313 25.6515 9.88556 25.6055 9.73828L25.3594 8.95117L24.7754 9.5332ZM10.9287 8.57129C10.7931 8.57129 10.6473 8.58679 10.5 8.63281L9.71191 8.87891L10.2959 9.46387L15.6738 14.8408C16.6795 15.8465 18.3146 15.8464 19.3203 14.8408L19.3213 14.8418L24.7041 9.46387L25.2891 8.87891L24.5 8.63281C24.3527 8.58679 24.2069 8.57129 24.0713 8.57129H10.9287Z" stroke="#222222"/>
</g>
<defs>
<filter id="filter0_d_21_60" x="0" y="-1.5" width="35" height="35" filterUnits="userSpaceOnUse" color-interpolation-filters="sRGB">
<feFlood flood-opacity="0" result="BackgroundImageFix"/>
<feColorMatrix in="SourceAlpha" type="matrix" values="0 0 0 0 0 0 0 0 0 0 0 0 0 0 0 0 0 0 127 0" result="hardAlpha"/>
<feOffset dy="2"/>
<feGaussianBlur stdDeviation="3"/>
<feComposite in2="hardAlpha" operator="out"/>
<feColorMatrix type="matrix" values="0 0 0 0 0 0 0 0 0 0 0 0 0 0 0 0 0 0 0.05 0"/>
<feBlend mode="normal" in2="BackgroundImageFix" result="effect1_dropShadow_21_60"/>
<feBlend mode="normal" in="SourceGraphic" in2="effect1_dropShadow_21_60" result="shape"/>
</filter>
</defs>
</svg>
