<svg width="42" height="37" viewBox="0 0 42 37" fill="none" xmlns="http://www.w3.org/2000/svg">
<g filter="url(#filter0_d_28_123)">
<path d="M16.2985 33.5C16.7622 33.2953 17.087 32.8222 17.087 32.2715V28.6584C17.087 28.5265 17.0974 28.3894 17.1137 28.2502C17.1046 28.2529 17.0961 28.2549 17.087 28.2569C17.087 28.2569 15.1304 28.2569 14.7391 28.2569C13.7609 28.2569 12.913 27.8554 12.5217 27.0525C12.0652 26.1827 11.8696 24.7106 10.6957 23.9077C10.5 23.7739 10.6304 23.5732 11.0217 23.5732C11.413 23.6401 12.2609 24.1754 12.7826 24.9114C13.3696 25.6474 13.9565 26.2496 15 26.2496C16.622 26.2496 17.4913 26.1659 18.0143 25.8782C18.6235 24.9488 19.4667 24.2423 20.3478 24.2423V24.2255C16.6513 24.1038 14.2898 22.8432 13.1902 20.8967C10.8 20.9248 8.71891 21.1677 7.5313 21.3698C7.49348 21.151 7.46087 20.9309 7.43283 20.7094C8.60478 20.5113 10.5913 20.2765 12.8752 20.2316C12.8022 20.047 12.7389 19.8576 12.6854 19.6636C10.3957 19.5445 8.41957 19.6375 7.34609 19.7285C7.33304 19.5063 7.31543 19.2849 7.31283 19.06C8.38826 18.9697 10.3109 18.8794 12.542 18.9858C12.4904 18.6512 12.4572 18.3093 12.4572 17.9533C12.4572 16.8159 12.8485 15.6115 13.5659 14.6078C13.2398 13.4703 12.7833 11.0616 13.6963 10.1917C15.4572 10.1917 16.6963 11.0616 17.2833 11.5968C18.3913 11.1278 19.6304 10.8602 21 10.8602C22.3696 10.8602 23.6087 11.1278 24.6522 11.5962C25.2391 11.0609 26.4783 10.1911 28.2391 10.1911C29.2174 11.1278 28.6957 13.5366 28.3696 14.6071C29.087 15.6108 29.4783 16.7483 29.413 17.9527C29.413 18.2765 29.3837 18.589 29.3413 18.8954C31.6233 18.7804 33.598 18.8727 34.6917 18.9637C34.6904 19.1892 34.6702 19.4093 34.6585 19.6321C33.5687 19.5398 31.5443 19.4448 29.207 19.5726C29.1489 19.7974 29.0785 20.0162 28.995 20.2283C31.3076 20.2591 33.3417 20.4886 34.5698 20.6893C34.5417 20.9115 34.5091 21.1316 34.4713 21.3497C33.2243 21.145 31.0989 20.9054 28.6807 20.8934C27.5948 22.8191 25.2763 24.075 21.6522 24.2215V24.2423C23.3478 24.2423 24.913 26.8518 24.913 28.6584V32.2715C24.913 32.8222 25.2378 33.2953 25.7015 33.5C31.6761 31.4713 36 25.6902 36 18.8894C36 10.4038 29.2715 3.5 21 3.5C12.7285 3.5 6 10.4038 6 18.8894C6 25.6902 10.3239 31.4713 16.2985 33.5Z" fill="white"/>
<path d="M21 4C28.9834 4 35.5 10.668 35.5 18.8896C35.4999 25.3959 31.4126 30.9274 25.749 32.9502C25.5482 32.7997 25.4131 32.5546 25.4131 32.2715V28.6582C25.413 27.6318 24.9776 26.4305 24.3311 25.4893C24.0951 25.1458 23.8154 24.8161 23.501 24.5371C26.0922 24.1133 27.9305 23.018 28.96 21.3975C31.2321 21.4256 33.2154 21.6498 34.3906 21.8428L34.8789 21.9238L34.9639 21.4355C35.0031 21.2093 35.0365 20.9811 35.0654 20.752L35.126 20.2734L34.6504 20.1963C34.4072 20.1565 34.1334 20.1163 33.833 20.0762C34.1306 20.0933 34.3935 20.111 34.6162 20.1299L35.1309 20.1738L35.1582 19.6582C35.1686 19.4618 35.19 19.2069 35.1914 18.9668L35.1943 18.5039L34.7334 18.4658C33.7159 18.3812 31.957 18.2978 29.8975 18.373C29.901 18.3207 29.9049 18.268 29.9072 18.2148L29.9131 17.9531C29.9743 16.7086 29.5944 15.5417 28.9131 14.5156C29.0692 13.9567 29.2477 13.1663 29.293 12.3779C29.319 11.9239 29.3031 11.4512 29.2061 11.0166C29.1092 10.5831 28.9238 10.1546 28.585 9.83008L28.4395 9.69141H28.2393C26.5266 9.69141 25.2678 10.4409 24.5596 11.0166C23.5129 10.5961 22.3088 10.3604 21 10.3604C19.6811 10.3604 18.4735 10.5993 17.3789 11.0215C16.6714 10.4454 15.4121 9.69141 13.6963 9.69141H13.4961L13.3516 9.83008C13.0252 10.141 12.8494 10.5606 12.7568 10.9814C12.6636 11.4053 12.6454 11.8711 12.667 12.3232C12.7049 13.1165 12.8696 13.9265 13.0234 14.5127C12.3342 15.5557 11.9571 16.7802 11.957 17.9531C11.957 18.1271 11.9655 18.2973 11.9785 18.4639C9.97434 18.3962 8.26825 18.4777 7.27051 18.5615L6.80762 18.6006L6.8125 19.0654C6.81529 19.3059 6.83444 19.5493 6.84668 19.7578L6.87695 20.2705L7.18848 20.2432L6.87695 20.2959L6.93652 20.7725C6.96544 21.0008 6.99988 21.2284 7.03906 21.4551L7.12402 21.9463L7.61523 21.8623C8.73163 21.6724 10.6694 21.445 12.9121 21.4023C13.9572 23.0435 15.8331 24.1469 18.4814 24.5566C18.1785 24.8295 17.9081 25.1495 17.6777 25.4834C17.4994 25.5617 17.2455 25.6298 16.8613 25.6748C16.406 25.7282 15.8067 25.75 15 25.75C14.3046 25.75 13.8685 25.4219 13.3848 24.8564L13.1738 24.5996C12.8772 24.1878 12.4995 23.8399 12.1445 23.585C11.7991 23.3369 11.415 23.1329 11.1064 23.0801L11.0645 23.0732H11.0215C10.7765 23.0733 10.4585 23.1309 10.2578 23.3662C10.1412 23.5032 10.0707 23.7015 10.123 23.917C10.171 24.1136 10.3016 24.244 10.4131 24.3203C10.8886 24.6456 11.1838 25.1161 11.4199 25.6553C11.5389 25.9269 11.6367 26.2004 11.7402 26.4805C11.8403 26.7511 11.948 27.0353 12.0791 27.2852V27.2842C12.5813 28.3004 13.6378 28.7568 14.7393 28.7568H16.5869V32.2715C16.5869 32.5549 16.4511 32.7997 16.25 32.9502C10.5869 30.9271 6.5001 25.3956 6.5 18.8896C6.5 10.668 13.0166 4 21 4Z" stroke="#222222"/>
</g>
<defs>
<filter id="filter0_d_28_123" x="0" y="-0.5" width="42" height="42" filterUnits="userSpaceOnUse" color-interpolation-filters="sRGB">
<feFlood flood-opacity="0" result="BackgroundImageFix"/>
<feColorMatrix in="SourceAlpha" type="matrix" values="0 0 0 0 0 0 0 0 0 0 0 0 0 0 0 0 0 0 127 0" result="hardAlpha"/>
<feOffset dy="2"/>
<feGaussianBlur stdDeviation="3"/>
<feComposite in2="hardAlpha" operator="out"/>
<feColorMatrix type="matrix" values="0 0 0 0 0 0 0 0 0 0 0 0 0 0 0 0 0 0 0.05 0"/>
<feBlend mode="normal" in2="BackgroundImageFix" result="effect1_dropShadow_28_123"/>
<feBlend mode="normal" in="SourceGraphic" in2="effect1_dropShadow_28_123" result="shape"/>
</filter>
</defs>
</svg>
