<svg width="33" height="28" viewBox="0 0 33 28" fill="none" xmlns="http://www.w3.org/2000/svg">
<g filter="url(#filter0_d_21_61)">
<path d="M11.5622 25.5C11.9177 25.343 12.1667 24.9804 12.1667 24.5582V21.7881C12.1667 21.687 12.1747 21.5819 12.1872 21.4752C12.1802 21.4772 12.1737 21.4787 12.1667 21.4803C12.1667 21.4803 10.6667 21.4803 10.3667 21.4803C9.61667 21.4803 8.96667 21.1725 8.66667 20.5569C8.31667 19.89 8.16667 18.7615 7.26667 18.1459C7.11667 18.0433 7.21667 17.8894 7.51667 17.8894C7.81667 17.9407 8.46667 18.3511 8.86667 18.9154C9.31667 19.4797 9.76667 19.9413 10.5667 19.9413C11.8102 19.9413 12.4767 19.8772 12.8777 19.6566C13.3447 18.9441 13.9912 18.4024 14.6667 18.4024V18.3896C11.8327 18.2962 10.0222 17.3298 9.17917 15.8375C7.34667 15.859 5.75117 16.0453 4.84067 16.2002C4.81167 16.0324 4.78667 15.8637 4.76517 15.6939C5.66367 15.542 7.18667 15.362 8.93767 15.3276C8.88167 15.186 8.83317 15.0408 8.79217 14.8921C7.03667 14.8008 5.52167 14.8721 4.69867 14.9418C4.68867 14.7715 4.67517 14.6017 4.67317 14.4294C5.49767 14.3601 6.97167 14.2909 8.68217 14.3724C8.64267 14.1159 8.61717 13.8538 8.61717 13.5809C8.61717 12.7088 8.91717 11.7855 9.46717 11.016C9.21717 10.1439 8.86717 8.29719 9.56717 7.63032C10.9172 7.63032 11.8672 8.29719 12.3172 8.70758C13.1667 8.34798 14.1167 8.14279 15.1667 8.14279C16.2167 8.14279 17.1667 8.34798 17.9667 8.70707C18.4167 8.29668 19.3667 7.62981 20.7167 7.62981C21.4667 8.34798 21.0667 10.1947 20.8167 11.0155C21.3667 11.7849 21.6667 12.657 21.6167 13.5804C21.6167 13.8287 21.5942 14.0682 21.5617 14.3032C23.3112 14.2149 24.8252 14.2857 25.6637 14.3555C25.6627 14.5284 25.6472 14.6971 25.6382 14.868C24.8027 14.7972 23.2507 14.7243 21.4587 14.8223C21.4142 14.9947 21.3602 15.1624 21.2962 15.325C23.0692 15.3486 24.6287 15.5246 25.5702 15.6785C25.5487 15.8488 25.5237 16.0176 25.4947 16.1848C24.5387 16.0278 22.9092 15.8442 21.0552 15.8349C20.2227 17.3113 18.4452 18.2742 15.6667 18.3865V18.4024C16.9667 18.4024 18.1667 20.403 18.1667 21.7881V24.5582C18.1667 24.9804 18.4157 25.343 18.7712 25.5C23.3517 23.9446 26.6667 19.5125 26.6667 14.2986C26.6667 7.79293 21.5082 2.5 15.1667 2.5C8.82517 2.5 3.66667 7.79293 3.66667 14.2986C3.66667 19.5125 6.98167 23.9446 11.5622 25.5Z" fill="white"/>
<path d="M4.22819 15.4814L4.22917 15.4834L4.23405 15.4824L4.26921 15.7568C4.29158 15.9335 4.31796 16.1096 4.34831 16.2852L4.4235 16.7236C4.33657 16.3173 4.2711 15.9029 4.22819 15.4814ZM4.22819 15.4814L4.22429 15.4062L4.21061 15.293C4.21599 15.356 4.22181 15.4188 4.22819 15.4814ZM8.90495 16.3438C9.70387 17.5583 11.0834 18.3789 12.988 18.7188C12.8237 18.8871 12.6771 19.0722 12.5456 19.2598C12.4245 19.3085 12.2483 19.3533 11.9801 19.3848C11.6381 19.4248 11.1844 19.4414 10.5671 19.4414C10.0158 19.4414 9.69622 19.1537 9.25749 18.6035H9.25651C9.02091 18.2779 8.72466 18.0039 8.44596 17.8037C8.17646 17.6102 7.86421 17.4415 7.60124 17.3965L7.55925 17.3896H7.51628C7.31697 17.3897 7.0298 17.4348 6.84245 17.6543C6.73225 17.7835 6.66417 17.9737 6.71452 18.1807C6.76029 18.3685 6.88398 18.4901 6.98405 18.5586C7.32269 18.7902 7.53735 19.1286 7.71452 19.5332C7.80393 19.7374 7.87771 19.9429 7.95768 20.1592C8.03243 20.3614 8.11619 20.5797 8.21745 20.7754V20.7764C8.62589 21.614 9.48919 21.9805 10.3669 21.9805H11.6667V24.5586C11.6666 24.7148 11.6008 24.8506 11.5016 24.9453C7.97699 23.6613 5.26805 20.5821 4.43522 16.7754L4.92448 16.6934C5.76444 16.5504 7.21843 16.3794 8.90495 16.3438ZM21.3307 16.3389C23.04 16.3637 24.5288 16.5324 25.4137 16.6777L25.901 16.7578C25.0726 20.5729 22.3612 23.6596 18.8307 24.9453C18.7319 24.8506 18.6668 24.7145 18.6667 24.5586V21.7881C18.6667 20.9725 18.3219 20.0293 17.8161 19.293C17.6751 19.0877 17.5121 18.8864 17.3307 18.7031C19.1935 18.3537 20.5444 17.5378 21.3307 16.3389ZM26.1237 15.2822C26.0822 15.7735 26.0088 16.2553 25.9079 16.7266L25.987 16.2705C26.0174 16.0952 26.0437 15.9185 26.0661 15.7412L26.1071 15.4092L26.11 15.4102L26.112 15.3779L26.1237 15.2822ZM4.1735 14.4355C4.1757 14.6233 4.19068 14.8142 4.19987 14.9707L4.21745 15.2793L4.20866 15.2803C4.18142 14.9568 4.16668 14.6295 4.16667 14.2988C4.16667 14.2536 4.16908 14.2082 4.1696 14.1631L4.1735 14.4355ZM26.1667 14.2988C26.1667 14.6232 26.1519 14.9443 26.1257 15.2617L26.1178 15.2607L26.1374 14.8945C26.145 14.75 26.1627 14.5461 26.1637 14.3584V14.2178C26.1639 14.2447 26.1667 14.2719 26.1667 14.2988ZM15.1667 3C21.0888 3 25.9479 7.84019 26.1559 13.8945L25.7048 13.8574C24.942 13.794 23.6407 13.7304 22.112 13.7803L22.1169 13.5801C22.1626 12.619 21.8725 11.7208 21.3591 10.9297C21.4768 10.499 21.6073 9.90582 21.6413 9.3125C21.6616 8.95813 21.6495 8.58449 21.5719 8.2373C21.4946 7.89104 21.344 7.53841 21.0622 7.26855L20.9176 7.12988H20.7165C19.4118 7.12994 18.4432 7.68321 17.8776 8.12891C17.075 7.81605 16.1582 7.64258 15.1667 7.64258C14.1662 7.64258 13.2467 7.81894 12.4108 8.13281C11.8459 7.68649 10.8752 7.12988 9.56706 7.12988H9.36686L9.22233 7.26855C8.94927 7.52874 8.80687 7.87551 8.73307 8.21094C8.65865 8.54938 8.64494 8.91791 8.66179 9.27051C8.69039 9.86835 8.81167 10.476 8.92741 10.9268C8.40602 11.7344 8.11686 12.6749 8.11686 13.5811C8.11687 13.6723 8.11994 13.7621 8.12468 13.8506C6.63924 13.8063 5.37876 13.8679 4.63151 13.9307L4.17448 13.9688C4.34511 7.87978 9.22034 3 15.1667 3Z" stroke="#222222"/>
</g>
<defs>
<filter id="filter0_d_21_61" x="-2.33333" y="-1.5" width="35" height="35" filterUnits="userSpaceOnUse" color-interpolation-filters="sRGB">
<feFlood flood-opacity="0" result="BackgroundImageFix"/>
<feColorMatrix in="SourceAlpha" type="matrix" values="0 0 0 0 0 0 0 0 0 0 0 0 0 0 0 0 0 0 127 0" result="hardAlpha"/>
<feOffset dy="2"/>
<feGaussianBlur stdDeviation="3"/>
<feComposite in2="hardAlpha" operator="out"/>
<feColorMatrix type="matrix" values="0 0 0 0 0 0 0 0 0 0 0 0 0 0 0 0 0 0 0.05 0"/>
<feBlend mode="normal" in2="BackgroundImageFix" result="effect1_dropShadow_21_61"/>
<feBlend mode="normal" in="SourceGraphic" in2="effect1_dropShadow_21_61" result="shape"/>
</filter>
</defs>
</svg>
