<svg width="42" height="37" viewBox="0 0 42 37" fill="none" xmlns="http://www.w3.org/2000/svg">
<g filter="url(#filter0_d_90_5)">
<path d="M21 3.5C12.7236 3.5 6 10.2236 6 18.5C6 26.7764 12.7236 33.5 21 33.5C29.2764 33.5 36 26.7764 36 18.5C36 10.2236 29.2764 3.5 21 3.5ZM21 4.80435C28.5714 4.80435 34.6957 10.9286 34.6957 18.5C34.6957 26.0714 28.5714 32.1957 21 32.1957C13.4286 32.1957 7.30435 26.0714 7.30435 18.5C7.30435 10.9286 13.4286 4.80435 21 4.80435ZM18.3913 9.36957L11.8696 15.2391H16.2921C16.3052 17.0959 17.718 18.9764 20.1975 18.9764C20.4323 18.9764 20.6933 18.9503 20.9541 18.9242C20.8368 19.2176 20.7134 19.4587 20.7134 19.8566C20.7134 20.6066 21.0916 21.0566 21.4242 21.487C20.3611 21.5587 18.3846 21.6823 16.9303 22.5888C15.5412 23.4301 15.1177 24.65 15.1177 25.5109C15.1177 27.2848 16.7612 28.9348 20.172 28.9348C24.2155 28.9348 26.3613 26.6591 26.3613 24.4091C26.3613 22.7591 25.4214 21.9434 24.3844 21.0565L23.5437 20.3852C23.2829 20.1765 22.9234 19.8828 22.9234 19.3611C22.9234 18.8328 23.2831 18.4933 23.5896 18.1803C24.5744 17.3977 25.5652 16.5175 25.5652 14.7436C25.5652 14.0634 25.4062 13.5098 25.1793 13.0546L27.5217 11.0459V13.4635C27.1337 13.6891 26.8696 14.105 26.8696 14.587V18.5C26.8696 19.22 27.4539 19.8043 28.1739 19.8043C28.8939 19.8043 29.4783 19.22 29.4783 18.5V14.587C29.4783 14.1057 29.2141 13.6898 28.8261 13.4635V10.0217C28.8261 9.9937 28.8134 9.97016 28.8095 9.94277L29.4783 9.36957H18.3913ZM20.5236 11.4828C22.4801 11.4828 23.4915 14.163 23.4915 15.8913C23.4915 16.3152 23.4391 17.0782 22.9043 17.6326C22.526 18.0173 21.8941 18.3038 21.3006 18.3038C19.2854 18.3038 18.3582 15.6436 18.3582 14.0392C18.3582 13.4197 18.4826 12.7745 18.8804 12.2789C19.2587 11.7897 19.9171 11.4828 20.5236 11.4828ZM21.6777 22.1583C21.919 22.1583 22.0375 22.159 22.2266 22.185C24.0136 23.4763 24.7831 24.1219 24.7831 25.3415C24.7831 26.8219 23.5891 27.931 21.3261 27.931C18.8087 27.931 17.1914 26.7112 17.1914 25.009C17.1914 23.3068 18.6912 22.7386 19.2129 22.543C20.1977 22.2038 21.469 22.1583 21.6777 22.1583Z" fill="white"/>
<path d="M21 4C29.0002 4 35.5 10.4998 35.5 18.5C35.5 26.5002 29.0002 33 21 33C12.9998 33 6.5 26.5002 6.5 18.5C6.5 10.4998 12.9998 4 21 4ZM21 4.30469C13.1524 4.30469 6.80469 10.6524 6.80469 18.5C6.80469 26.3476 13.1524 32.6953 21 32.6953C28.8476 32.6953 35.1953 26.3476 35.1953 18.5C35.1953 10.6524 28.8476 4.30469 21 4.30469ZM17.916 22.6475C17.3026 23.0876 16.6915 23.817 16.6914 25.0088C16.6914 26.0364 17.1866 26.9116 18.0225 27.5137C18.7384 28.0292 19.6945 28.3396 20.8057 28.4131C20.6009 28.4262 20.3896 28.4346 20.1719 28.4346C18.5427 28.4345 17.3953 28.0402 16.668 27.4893C15.9478 26.9437 15.6182 26.2317 15.6182 25.5107C15.6182 24.8107 15.9617 23.7602 17.1895 23.0166L17.1943 23.0127C17.4217 22.871 17.6649 22.7513 17.916 22.6475ZM22.751 18.3779C22.5719 18.6356 22.4238 18.9597 22.4238 19.3613C22.4239 20.1473 22.9837 20.5772 23.2314 20.7754V20.7764L24.0723 21.4473C25.1102 22.3354 25.8613 23.0162 25.8613 24.4092C25.8613 25.1475 25.5802 25.9245 25.0068 26.5977C25.1901 26.2148 25.2832 25.7901 25.2832 25.3418C25.2832 24.5983 25.0383 24.0172 24.5518 23.4609C24.0917 22.9351 23.4027 22.4175 22.5195 21.7793L22.4189 21.707L22.2949 21.6895C22.2633 21.6851 22.2332 21.6819 22.2041 21.6787L21.8193 21.1816C21.4738 20.7345 21.2139 20.4124 21.2139 19.8564C21.2139 19.5759 21.2885 19.4339 21.418 19.1104L21.5459 18.79C21.9718 18.7471 22.393 18.595 22.751 18.3779ZM28.2939 9.86914L28.3145 10.0137C28.3175 10.0348 28.3226 10.0532 28.3262 10.0684V13.751L28.5742 13.8955C28.819 14.0383 28.9785 14.2953 28.9785 14.5869V18.5C28.9785 18.9439 28.6177 19.3047 28.1738 19.3047C27.73 19.3046 27.3691 18.9438 27.3691 18.5V14.5869C27.3692 14.2944 27.5293 14.0375 27.7734 13.8955L28.0215 13.751V9.95801L27.1963 10.666L24.8535 12.6748L24.5576 12.9287L24.7314 13.2773C24.926 13.6676 25.0654 14.1454 25.0654 14.7432C25.0654 16.0928 24.4241 16.8345 23.6074 17.5195C23.9601 16.9073 23.9912 16.2424 23.9912 15.8916C23.9912 14.9469 23.7195 13.7591 23.1777 12.7939C22.6396 11.8353 21.7626 10.9824 20.5234 10.9824C19.7721 10.9825 18.968 11.3531 18.4902 11.9658C17.9915 12.5873 17.8584 13.3648 17.8584 14.0391C17.8584 14.9192 18.1089 16.0703 18.6377 17.0166C18.9629 17.5985 19.4185 18.1405 20.0156 18.4717C17.9536 18.3836 16.803 16.8013 16.792 15.2354L16.7891 14.7393H13.1719L18.583 9.86914H28.2939Z" stroke="#222222"/>
</g>
<defs>
<filter id="filter0_d_90_5" x="0" y="-0.5" width="42" height="42" filterUnits="userSpaceOnUse" color-interpolation-filters="sRGB">
<feFlood flood-opacity="0" result="BackgroundImageFix"/>
<feColorMatrix in="SourceAlpha" type="matrix" values="0 0 0 0 0 0 0 0 0 0 0 0 0 0 0 0 0 0 127 0" result="hardAlpha"/>
<feOffset dy="2"/>
<feGaussianBlur stdDeviation="3"/>
<feComposite in2="hardAlpha" operator="out"/>
<feColorMatrix type="matrix" values="0 0 0 0 0 0 0 0 0 0 0 0 0 0 0 0 0 0 0.05 0"/>
<feBlend mode="normal" in2="BackgroundImageFix" result="effect1_dropShadow_90_5"/>
<feBlend mode="normal" in="SourceGraphic" in2="effect1_dropShadow_90_5" result="shape"/>
</filter>
</defs>
</svg>
