<svg width="34" height="28" viewBox="0 0 34 28" fill="none" xmlns="http://www.w3.org/2000/svg">
<g filter="url(#filter0_d_21_63)">
<path d="M26.9286 2.5H9.40477C7.89334 2.5 6.66667 3.72667 6.66667 5.2381V22.7619C6.66667 24.2733 7.89334 25.5 9.40477 25.5H26.9286C28.44 25.5 29.6667 24.2733 29.6667 22.7619V5.2381C29.6667 3.72667 28.44 2.5 26.9286 2.5ZM13.7857 11.2619V21.6667H10.5V11.2619H13.7857ZM10.5 8.23357C10.5 7.46691 11.1571 6.88095 12.1429 6.88095C13.1286 6.88095 13.7474 7.46691 13.7857 8.23357C13.7857 9.00024 13.1724 9.61905 12.1429 9.61905C11.1571 9.61905 10.5 9.00024 10.5 8.23357ZM25.8333 21.6667H22.5476C22.5476 21.6667 22.5476 16.5957 22.5476 16.1905C22.5476 15.0952 22 14 20.631 13.9781H20.5871C19.2619 13.9781 18.7143 15.1062 18.7143 16.1905C18.7143 16.6888 18.7143 21.6667 18.7143 21.6667H15.4286V11.2619H18.7143V12.6638C18.7143 12.6638 19.7712 11.2619 21.896 11.2619C24.07 11.2619 25.8333 12.7569 25.8333 15.7852V21.6667Z" fill="white"/>
<path d="M9.40495 3H26.9284C28.1637 3 29.1667 4.003 29.1667 5.23828V22.7617C29.1667 23.997 28.1637 25 26.9284 25H9.40495C8.16967 25 7.16667 23.997 7.16667 22.7617V5.23828C7.16667 4.003 8.16967 3 9.40495 3ZM9.99968 22.167H14.2858V10.7617H9.99968V22.167ZM14.9284 22.167H19.2145V16.1904C19.2145 15.7228 19.3335 15.2809 19.5583 14.9707C19.7688 14.6801 20.0887 14.4785 20.5876 14.4785H20.6227L20.8141 14.4902C21.2384 14.5398 21.5159 14.7309 21.7018 14.9805C21.9282 15.2843 22.0475 15.7172 22.0475 16.1904V22.167H26.3337V15.7852C26.3336 14.1737 25.8622 12.9092 25.0426 12.0439C24.2224 11.1782 23.0998 10.7618 21.8962 10.7617C20.7178 10.7617 19.8275 11.1521 19.2321 11.5459C19.2262 11.5498 19.2204 11.5537 19.2145 11.5576V10.7617H14.9284V22.167ZM14.2858 8.2207L14.2848 8.20898C14.259 7.69229 14.0349 7.2237 13.6452 6.88965C13.2578 6.55765 12.7352 6.38093 12.1432 6.38086C10.965 6.38086 9.99978 7.11399 9.99968 8.2334C9.99968 9.33861 10.9482 10.1191 12.1432 10.1191C12.7579 10.1191 13.2935 9.93319 13.6823 9.58789C14.0736 9.24026 14.2858 8.75624 14.2858 8.2334V8.2207Z" stroke="#222222"/>
</g>
<defs>
<filter id="filter0_d_21_63" x="0.666672" y="-1.5" width="35" height="35" filterUnits="userSpaceOnUse" color-interpolation-filters="sRGB">
<feFlood flood-opacity="0" result="BackgroundImageFix"/>
<feColorMatrix in="SourceAlpha" type="matrix" values="0 0 0 0 0 0 0 0 0 0 0 0 0 0 0 0 0 0 127 0" result="hardAlpha"/>
<feOffset dy="2"/>
<feGaussianBlur stdDeviation="3"/>
<feComposite in2="hardAlpha" operator="out"/>
<feColorMatrix type="matrix" values="0 0 0 0 0 0 0 0 0 0 0 0 0 0 0 0 0 0 0.05 0"/>
<feBlend mode="normal" in2="BackgroundImageFix" result="effect1_dropShadow_21_63"/>
<feBlend mode="normal" in="SourceGraphic" in2="effect1_dropShadow_21_63" result="shape"/>
</filter>
</defs>
</svg>
