<svg width="42" height="37" viewBox="0 0 42 37" fill="none" xmlns="http://www.w3.org/2000/svg">
<g filter="url(#filter0_d_28_125)">
<path d="M32.4286 3.5H9.57143C7.6 3.5 6 5.1 6 7.07143V29.9286C6 31.9 7.6 33.5 9.57143 33.5H32.4286C34.4 33.5 36 31.9 36 29.9286V7.07143C36 5.1 34.4 3.5 32.4286 3.5ZM15.2857 14.9286V28.5H11V14.9286H15.2857ZM11 10.9786C11 9.97857 11.8571 9.21429 13.1429 9.21429C14.4286 9.21429 15.2357 9.97857 15.2857 10.9786C15.2857 11.9786 14.4857 12.7857 13.1429 12.7857C11.8571 12.7857 11 11.9786 11 10.9786ZM31 28.5H26.7143C26.7143 28.5 26.7143 21.8857 26.7143 21.3571C26.7143 19.9286 26 18.5 24.2143 18.4714H24.1571C22.4286 18.4714 21.7143 19.9429 21.7143 21.3571C21.7143 22.0071 21.7143 28.5 21.7143 28.5H17.4286V14.9286H21.7143V16.7571C21.7143 16.7571 23.0929 14.9286 25.8643 14.9286C28.7 14.9286 31 16.8786 31 20.8286V28.5Z" fill="white"/>
<path d="M9.57129 4H32.4287C34.1239 4.00008 35.4999 5.37611 35.5 7.07129V29.9287C35.4999 31.6239 34.1239 32.9999 32.4287 33H9.57129C7.87611 32.9999 6.50008 31.6239 6.5 29.9287V7.07129C6.50008 5.37611 7.87611 4.00008 9.57129 4ZM10.5 29H15.7861V14.4287H10.5V29ZM16.9287 29H22.2139V21.3574C22.2139 20.7249 22.3757 20.115 22.6924 19.6777C22.995 19.2601 23.4567 18.9717 24.1572 18.9717H24.2061L24.4727 18.9883C25.0658 19.0581 25.4655 19.3288 25.7334 19.6885C26.0532 20.1181 26.2139 20.7178 26.2139 21.3574V29H31.5V20.8281C31.4999 18.7561 30.8947 17.1478 29.8584 16.0537C28.8212 14.9588 27.3989 14.4287 25.8643 14.4287C24.3628 14.4287 23.2312 14.9254 22.4746 15.4258C22.3823 15.4869 22.2951 15.5481 22.2139 15.6084V14.4287H16.9287V29ZM15.7861 10.9658L15.7852 10.9531C15.7534 10.32 15.4786 9.7495 15.0029 9.3418C14.5294 8.93596 13.8847 8.71387 13.1426 8.71387C11.6644 8.71398 10.5 9.62579 10.5 10.9785C10.5 12.317 11.6477 13.286 13.1426 13.2861C13.9141 13.2861 14.5751 13.0526 15.0498 12.6309C15.527 12.207 15.7861 11.618 15.7861 10.9785V10.9658Z" stroke="#222222"/>
</g>
<defs>
<filter id="filter0_d_28_125" x="0" y="-0.5" width="42" height="42" filterUnits="userSpaceOnUse" color-interpolation-filters="sRGB">
<feFlood flood-opacity="0" result="BackgroundImageFix"/>
<feColorMatrix in="SourceAlpha" type="matrix" values="0 0 0 0 0 0 0 0 0 0 0 0 0 0 0 0 0 0 127 0" result="hardAlpha"/>
<feOffset dy="2"/>
<feGaussianBlur stdDeviation="3"/>
<feComposite in2="hardAlpha" operator="out"/>
<feColorMatrix type="matrix" values="0 0 0 0 0 0 0 0 0 0 0 0 0 0 0 0 0 0 0.05 0"/>
<feBlend mode="normal" in2="BackgroundImageFix" result="effect1_dropShadow_28_125"/>
<feBlend mode="normal" in="SourceGraphic" in2="effect1_dropShadow_28_125" result="shape"/>
</filter>
</defs>
</svg>
